<?xml version="1.0" encoding="UTF-8" standalone="no"?>
<svg
   class="ionicon"
   viewBox="0 0 512 512"
   version="1.1"
   id="svg1"
   sodipodi:docname="location-outline-red.svg"
   inkscape:version="1.3.2 (1:1.3.2+202311252150+091e20ef0f)"
   xmlns:inkscape="http://www.inkscape.org/namespaces/inkscape"
   xmlns:sodipodi="http://sodipodi.sourceforge.net/DTD/sodipodi-0.dtd"
   xmlns="http://www.w3.org/2000/svg"
   xmlns:svg="http://www.w3.org/2000/svg">
  <defs
     id="defs1" />
  <sodipodi:namedview
     id="namedview1"
     pagecolor="#ffffff"
     bordercolor="#000000"
     borderopacity="0.25"
     inkscape:showpageshadow="2"
     inkscape:pageopacity="0.0"
     inkscape:pagecheckerboard="0"
     inkscape:deskcolor="#d1d1d1"
     inkscape:zoom="1.171875"
     inkscape:cx="255.57333"
     inkscape:cy="256"
     inkscape:window-width="1466"
     inkscape:window-height="800"
     inkscape:window-x="0"
     inkscape:window-y="0"
     inkscape:window-maximized="1"
     inkscape:current-layer="svg1" />
  <path
     d="M256 48c-79.5 0-144 61.39-144 137 0 87 96 224.87 131.25 272.49a15.77 15.77 0 0025.5 0C304 409.89 400 272.07 400 185c0-75.61-64.5-137-144-137z"
     fill="none"
     stroke="currentColor"
     stroke-linecap="round"
     stroke-linejoin="round"
     stroke-width="32"
     id="path1" />
  <circle
     cx="256"
     cy="192"
     r="48"
     fill="none"
     stroke="currentColor"
     stroke-linecap="round"
     stroke-linejoin="round"
     stroke-width="32"
     id="circle1" />
  <path
     style="fill:#d40000;stroke-width:0.853333"
     d="m 246.9623,477.95509 c -4.98515,-1.59497 -11.00155,-5.31751 -14.13282,-8.74444 C 229.26909,465.3141 208.25116,435.38337 194.56509,414.72 141.79833,335.05217 111.20301,271.45521 100.16993,218.50551 96.732233,202.00743 95.823225,177.97069 98.091169,163.5373 101.96202,138.90285 111.64904,115.97747 126.54046,96.208942 153.1786,60.846525 193.64502,38.328545 239.5397,33.329291 c 28.91188,-3.149337 60.11352,2.309624 87.39805,15.29094 46.92469,22.325628 79.1197,64.866639 86.96782,114.915289 1.96542,12.5338 1.35812,37.532 -1.24072,51.07175 -11.31416,58.94581 -50.41129,137.17272 -113.449,226.99273 -21.16538,30.15774 -23.86278,33.02349 -34.13241,36.26274 -6.60216,2.08246 -11.81789,2.10904 -18.12114,0.0924 z m 18.14878,-41.72749 c 10.77968,-14.85349 33.6361,-48.88051 44.11234,-65.67138 C 360.06164,289.07496 386.1261,222.94352 384.13835,180.48 383.27799,162.10046 379.32248,147.19315 371.11398,131.39458 364.94019,119.51212 357.55971,109.78941 347.07293,99.723942 332.96996,86.187572 317.68213,76.955945 299.18915,70.809091 282.23487,65.173687 277.17987,64.426667 256,64.426667 c -21.17987,0 -26.23487,0.74702 -43.18915,6.382424 -18.49298,6.146854 -33.78081,15.378481 -47.88378,28.914851 -10.50491,10.082868 -17.89741,19.827878 -23.97571,31.605518 -8.45106,16.37522 -12.27825,30.72596 -13.10793,49.15054 -2.35086,52.20491 37.695,140.04777 112.22312,246.16776 11.34382,16.15238 15.50468,21.45426 16.4019,20.89975 0.42624,-0.26343 4.31542,-5.35739 8.64263,-11.31991 z"
     id="path2" />
  <path
     style="fill:#d40000;stroke-width:0.853333"
     d="m 249.6,254.99547 c -25.40577,-2.32381 -46.69381,-20.19629 -54.73178,-45.95033 -2.85719,-9.15457 -2.85719,-24.93571 0,-34.09028 8.0509,-25.79547 29.16766,-43.53655 54.66847,-45.92928 31.05131,-2.91353 58.0837,15.45434 67.59509,45.92928 2.85719,9.15457 2.85719,24.93571 0,34.09028 -9.48934,30.40429 -36.50742,48.78808 -67.53178,45.95033 z m 15.41845,-31.92412 C 279.15595,218.93733 288,206.98005 288,192 c 0,-14.98005 -8.84405,-26.93733 -22.98155,-31.07135 -16.11673,-4.71279 -33.38307,3.90132 -39.24981,19.58158 -2.53467,6.77451 -2.41915,17.06303 0.26486,23.58868 6.3956,15.5497 23.02092,23.64058 38.98495,18.97244 z"
     id="path3" />
</svg>
