<?xml version="1.0" encoding="UTF-8" standalone="no"?>
<svg
   class="ionicon"
   viewBox="0 0 512 512"
   version="1.1"
   id="svg1"
   sodipodi:docname="logo-whatsapp-green.svg"
   inkscape:version="1.3.2 (1:1.3.2+202311252150+091e20ef0f)"
   xmlns:inkscape="http://www.inkscape.org/namespaces/inkscape"
   xmlns:sodipodi="http://sodipodi.sourceforge.net/DTD/sodipodi-0.dtd"
   xmlns="http://www.w3.org/2000/svg"
   xmlns:svg="http://www.w3.org/2000/svg">
  <defs
     id="defs1" />
  <sodipodi:namedview
     id="namedview1"
     pagecolor="#ffffff"
     bordercolor="#000000"
     borderopacity="0.25"
     inkscape:showpageshadow="2"
     inkscape:pageopacity="0.0"
     inkscape:pagecheckerboard="0"
     inkscape:deskcolor="#d1d1d1"
     inkscape:zoom="1.171875"
     inkscape:cx="255.57333"
     inkscape:cy="256"
     inkscape:window-width="1466"
     inkscape:window-height="800"
     inkscape:window-x="0"
     inkscape:window-y="0"
     inkscape:window-maximized="1"
     inkscape:current-layer="svg1" />
  <path
     d="M414.73 97.1A222.14 222.14 0 00256.94 32C134 32 33.92 131.58 33.87 254a220.61 220.61 0 0029.78 111L32 480l118.25-30.87a223.63 223.63 0 00106.6 27h.09c122.93 0 223-99.59 223.06-222A220.18 220.18 0 00414.73 97.1zM256.94 438.66h-.08a185.75 185.75 0 01-94.36-25.72l-6.77-4-70.17 18.32 18.73-68.09-4.41-7A183.46 183.46 0 0171.53 254c0-101.73 83.21-184.5 185.48-184.5a185 185 0 01185.33 184.64c-.04 101.74-83.21 184.52-185.4 184.52zm101.69-138.19c-5.57-2.78-33-16.2-38.08-18.05s-8.83-2.78-12.54 2.78-14.4 18-17.65 21.75-6.5 4.16-12.07 1.38-23.54-8.63-44.83-27.53c-16.57-14.71-27.75-32.87-31-38.42s-.35-8.56 2.44-11.32c2.51-2.49 5.57-6.48 8.36-9.72s3.72-5.56 5.57-9.26.93-6.94-.46-9.71-12.54-30.08-17.18-41.19c-4.53-10.82-9.12-9.35-12.54-9.52-3.25-.16-7-.2-10.69-.2a20.53 20.53 0 00-14.86 6.94c-5.11 5.56-19.51 19-19.51 46.28s20 53.68 22.76 57.38 39.3 59.73 95.21 83.76a323.11 323.11 0 0031.78 11.68c13.35 4.22 25.5 3.63 35.1 2.2 10.71-1.59 33-13.42 37.63-26.38s4.64-24.06 3.25-26.37-5.11-3.71-10.69-6.48z"
     fill-rule="evenodd"
     id="path1" />
  <path
     style="fill:#00ff00;stroke-width:0.853333"
     d="m 32.880518,478.78486 c 0.01495,-0.27034 7.053513,-25.97621 15.641247,-57.12415 L 64.135828,365.02808 58.801676,354.67404 C 45.999242,329.82343 38.214665,303.45177 35.365364,275.27929 33.904063,260.83067 34.753085,232.97104 37.069337,219.36548 42.713955,186.20924 54.372029,157.05034 72.745414,130.13333 121.95358,58.043371 207.9696,21.253358 293.97333,35.511684 c 20.92128,3.468482 39.696,9.536629 60.16,19.444213 22.51271,10.89946 39.92517,23.105276 57.92092,40.60151 19.52037,18.978543 32.49296,36.772443 44.49319,61.029263 10.3346,20.88998 16.85273,41.23513 20.50416,64 2.71098,16.90164 2.91502,47.21529 0.43078,64 -13.87234,93.7283 -84.78612,168.34165 -177.53571,186.79774 -15.25603,3.03578 -25.04203,3.92226 -43.29852,3.92226 -34.99849,0 -64.51923,-6.66518 -96.47186,-21.78136 l -10.16872,-4.81063 -58.577121,15.28086 C 59.213036,472.4 32.865566,479.0552 32.880518,478.78486 Z m 249.146152,-41.5427 c 38.13406,-4.96232 75.00952,-22.6633 103.30163,-49.58691 28.95596,-27.55535 47.72634,-62.89222 54.97503,-103.49525 2.25294,-12.61971 2.70261,-38.77163 0.90971,-52.90667 C 429.09717,135.73318 346.50107,65.656453 250.45333,69.407725 c -22.14547,0.864921 -41.52419,4.744918 -60.23105,12.059439 -26.55222,10.382107 -48.12591,24.858516 -68.19561,45.760726 -28.605864,29.79245 -45.653351,66.98417 -50.00322,109.08973 -1.236666,11.9706 -0.555456,35.71103 1.347967,46.97715 4.080558,24.15232 12.695176,47.19336 25.474926,68.13638 l 4.860047,7.96448 -9.302605,33.84885 c -5.116434,18.61687 -9.168326,33.9949 -9.004204,34.1734 0.164122,0.1785 16.018889,-3.78943 35.232819,-8.81762 l 34.93441,-9.14218 6.6966,3.862 c 36.91167,21.28734 77.5821,29.41104 119.76326,23.92208 z"
     id="path2" />
  <path
     style="fill:#00ff00;stroke-width:0.853333"
     d="m 300.8,358.87083 c -16.20554,-3.66337 -42.51863,-14.18384 -57.43149,-22.96219 -30.09359,-17.71439 -65.26962,-53.80476 -85.42742,-87.64799 -10.72145,-18.0004 -15.43327,-36.39767 -13.31644,-51.99398 2.01216,-14.82513 6.86296,-24.64844 17.50868,-35.45673 8.21424,-8.33967 10.56613,-9.22733 23.27972,-8.78634 12.28751,0.42621 10.91779,-1.38345 25.29643,33.42149 6.47176,15.66556 8.9353,22.56967 8.52563,23.89334 -1.42484,4.60384 -5.01836,10.13523 -11.39107,17.53391 -8.8176,10.2372 -8.89681,11.14409 -1.9128,21.89897 13.81903,21.28033 30.21663,37.30131 50.56972,49.4082 8.90921,5.29957 25.21672,12.41589 28.47504,12.426 2.89297,0.009 6.47421,-3.60586 19.01383,-19.19218 8.43656,-10.48635 9.50245,-11.03948 16.34736,-8.48297 6.10035,2.27841 45.45119,21.56735 47.16727,23.12038 0.84086,0.76096 1.77241,2.68194 2.07011,4.26884 0.78354,4.17665 -1.95475,18.08545 -4.70402,23.89346 -5.03323,10.63303 -22.13241,22.26549 -36.82514,25.05191 -5.99178,1.13632 -21.46542,0.91248 -27.24541,-0.39412 z"
     id="path3" />
</svg>
